<svg xmlns="http://www.w3.org/2000/svg" xmlns:xlink="http://www.w3.org/1999/xlink" contentStyleType="text/css" data-diagram-type="DESCRIPTION" height="1721.875px" preserveAspectRatio="none" style="width:1881px;height:1721px;background:#FFFFFF;" version="1.1" viewBox="0 0 1881 1721" width="1881.25px" zoomAndPan="magnify"><?plantuml 1.2026.6?><defs><filter height="300%" id="fngv85g7gmb39" width="300%" x="-1" y="-1"><feGaussianBlur result="blurOut" stdDeviation="3.125"/><feColorMatrix in="blurOut" result="blurOut2" type="matrix" values="0 0 0 0 0 0 0 0 0 0 0 0 0 0 0 0 0 0 .4 0"/><feOffset dx="6.25" dy="6.25" in="blurOut2" result="blurOut3"/><feBlend in="SourceGraphic" in2="blurOut3" mode="normal"/></filter></defs><g><rect fill="#FFFFCC" height="26.001" rx="3.9063" ry="3.9063" style="stroke:#FFDD88;stroke-width:4.6875;" width="1857.0313" x="4.6875" y="4.6875"/><text fill="#000000" font-family="monospace" font-size="15.625" lengthAdjust="spacing" textLength="555.0156" x="15.625" y="21.3135">Please&#160;use&#160;'!option&#160;handwritten&#160;true'&#160;to&#160;enable&#160;handwritten</text><!--cluster LocalMind-AI--><g class="cluster" data-qualified-name="LocalMind-AI" data-source-line="20" id="ent0005"><rect fill="none" filter="url(#fngv85g7gmb39)" height="1170.3125" style="stroke:#000000;stroke-width:2.3438;" width="1505.7188" x="345.0625" y="155.6416"/><text fill="#000000" font-family="sans-serif" font-size="21.875" font-weight="700" lengthAdjust="spacing" textLength="151.4694" x="349.75" y="179.9153">LocalMind-AI</text></g><!--entity UC1--><g class="entity" data-qualified-name="LocalMind-AI.UC1" data-source-line="22" id="ent0006"><ellipse cx="549.1503" cy="247.831" fill="#ADD8E6" rx="171.4941" ry="38.0488" style="stroke:#00008B;stroke-width:1.5625;"/><text fill="#000000" font-family="sans-serif" font-size="21.875" font-style="italic" lengthAdjust="spacing" textLength="104.8462" x="496.7272" y="236.4543">&#171;primary&#187;</text><text fill="#000000" font-family="sans-serif" font-size="21.875" lengthAdjust="spacing" textLength="268.0969" x="415.1019" y="262.2172">CU1: Iniciar conversaci&#243;n</text></g><!--entity UC2--><g class="entity" data-qualified-name="LocalMind-AI.UC2" data-source-line="23" id="ent0007"><ellipse cx="1184.5564" cy="866.5718" fill="#ADD8E6" rx="173.1189" ry="46.6489" style="stroke:#00008B;stroke-width:1.5625;"/><text fill="#000000" font-family="sans-serif" font-size="21.875" font-style="italic" lengthAdjust="spacing" textLength="104.8462" x="1132.1333" y="846.9887">&#171;primary&#187;</text><text fill="#000000" font-family="sans-serif" font-size="21.875" lengthAdjust="spacing" textLength="310.2341" x="1029.4394" y="872.7517">CU2: Enviar mensaje y recibir</text><text fill="#000000" font-family="sans-serif" font-size="21.875" lengthAdjust="spacing" textLength="152.5589" x="1108.277" y="898.5146">respuesta CoT</text></g><!--entity UC3--><g class="entity" data-qualified-name="LocalMind-AI.UC3" data-source-line="24" id="ent0008"><ellipse cx="549.1494" cy="371.2715" fill="#ADD8E6" rx="175.1025" ry="38.7705" style="stroke:#00008B;stroke-width:1.5625;"/><text fill="#000000" font-family="sans-serif" font-size="21.875" font-style="italic" lengthAdjust="spacing" textLength="104.8462" x="496.7263" y="359.1354">&#171;primary&#187;</text><text fill="#000000" font-family="sans-serif" font-size="21.875" lengthAdjust="spacing" textLength="282.3135" x="407.9926" y="384.8983">CU3: Cambiar modelo LLM</text></g><!--entity UC4--><g class="entity" data-qualified-name="LocalMind-AI.UC4" data-source-line="25" id="ent0009"><ellipse cx="549.1607" cy="494.7081" fill="#ADD8E6" rx="170.7232" ry="37.8946" style="stroke:#00008B;stroke-width:1.5625;"/><text fill="#000000" font-family="sans-serif" font-size="21.875" font-style="italic" lengthAdjust="spacing" textLength="104.8462" x="496.7376" y="483.4938">&#171;primary&#187;</text><text fill="#000000" font-family="sans-serif" font-size="21.875" lengthAdjust="spacing" textLength="264.9567" x="416.6824" y="509.2567">CU4: Indexar documento</text></g><!--entity UC5--><g class="entity" data-qualified-name="LocalMind-AI.UC5" data-source-line="26" id="ent0010"><ellipse cx="1670.6282" cy="1152.5121" fill="#ADD8E6" rx="155.1438" ry="51.3548" style="stroke:#00008B;stroke-width:1.5625;"/><text fill="#000000" font-family="sans-serif" font-size="21.875" font-style="italic" lengthAdjust="spacing" textLength="104.8462" x="1618.2051" y="1129.0633">&#171;primary&#187;</text><text fill="#000000" font-family="sans-serif" font-size="21.875" lengthAdjust="spacing" textLength="249.1806" x="1546.0379" y="1154.8262">CU5: Buscar en base de</text><text fill="#000000" font-family="sans-serif" font-size="21.875" lengthAdjust="spacing" textLength="209.1904" x="1566.033" y="1180.5892">conocimiento (RAG)</text></g><!--entity UC6--><g class="entity" data-qualified-name="LocalMind-AI.UC6" data-source-line="28" id="ent0011"><ellipse cx="549.1495" cy="618.1369" fill="#ADD8E6" rx="127.212" ry="38.1203" style="stroke:#00008B;stroke-width:1.5625;"/><text fill="#000000" font-family="sans-serif" font-size="21.875" font-style="italic" lengthAdjust="spacing" textLength="104.8462" x="496.7264" y="608.213">&#171;primary&#187;</text><text fill="#000000" font-family="sans-serif" font-size="21.875" lengthAdjust="spacing" textLength="188.8321" x="454.7335" y="633.9759">CU6: Generar PDF</text></g><!--entity UC7--><g class="entity" data-qualified-name="LocalMind-AI.UC7" data-source-line="29" id="ent0012"><ellipse cx="549.1592" cy="743.1484" fill="#ADD8E6" rx="179.0967" ry="39.5693" style="stroke:#00008B;stroke-width:1.5625;"/><text fill="#000000" font-family="sans-serif" font-size="21.875" font-style="italic" lengthAdjust="spacing" textLength="104.8462" x="496.7361" y="730.1738">&#171;primary&#187;</text><text fill="#000000" font-family="sans-serif" font-size="21.875" lengthAdjust="spacing" textLength="297.2244" x="400.547" y="755.9367">CU7: Preparar impresi&#243;n 3D</text></g><!--entity UC8--><g class="entity" data-qualified-name="LocalMind-AI.UC8" data-source-line="30" id="ent0013"><ellipse cx="549.1579" cy="866.5868" fill="#ADD8E6" rx="167.5172" ry="37.5546" style="stroke:#00008B;stroke-width:1.5625;"/><text fill="#000000" font-family="sans-serif" font-size="21.875" font-style="italic" lengthAdjust="spacing" textLength="104.8462" x="496.7348" y="855.7639">&#171;primary&#187;</text><text fill="#000000" font-family="sans-serif" font-size="21.875" lengthAdjust="spacing" textLength="255.2689" x="421.5234" y="881.5268">CU8: Enviar a impresora</text></g><!--entity UC9--><g class="entity" data-qualified-name="LocalMind-AI.UC9" data-source-line="32" id="ent0014"><ellipse cx="549.1559" cy="988.4478" fill="#ADD8E6" rx="170.9059" ry="37.9312" style="stroke:#00008B;stroke-width:1.5625;"/><text fill="#000000" font-family="sans-serif" font-size="21.875" font-style="italic" lengthAdjust="spacing" textLength="104.8462" x="496.7328" y="977.1949">&#171;primary&#187;</text><text fill="#000000" font-family="sans-serif" font-size="21.875" lengthAdjust="spacing" textLength="265.7043" x="416.3037" y="1002.9579">CU9: Detener generaci&#243;n</text></g><!--entity UC10--><g class="entity" data-qualified-name="LocalMind-AI.UC10" data-source-line="33" id="ent0015"><ellipse cx="549.1581" cy="1118.1428" fill="#ADD8E6" rx="155.5643" ry="45.5325" style="stroke:#00008B;stroke-width:1.5625;"/><text fill="#000000" font-family="sans-serif" font-size="21.875" font-style="italic" lengthAdjust="spacing" textLength="104.8462" x="496.735" y="1100.1368">&#171;primary&#187;</text><text fill="#000000" font-family="sans-serif" font-size="21.875" lengthAdjust="spacing" textLength="285.4965" x="406.4098" y="1125.8998">CU10: Instalar y configurar</text><text fill="#000000" font-family="sans-serif" font-size="21.875" lengthAdjust="spacing" textLength="81.4972" x="508.4095" y="1151.6627">sistema</text></g><!--entity UC11--><g class="entity" data-qualified-name="LocalMind-AI.UC11" data-source-line="34" id="ent0016"><ellipse cx="549.1591" cy="1255.6449" fill="#ADD8E6" rx="170.0029" ry="45.4252" style="stroke:#00008B;stroke-width:1.5625;"/><text fill="#000000" font-family="sans-serif" font-size="21.875" font-style="italic" lengthAdjust="spacing" textLength="104.8462" x="496.736" y="1237.3039">&#171;primary&#187;</text><text fill="#000000" font-family="sans-serif" font-size="21.875" lengthAdjust="spacing" textLength="313.6414" x="392.3384" y="1263.0669">CU11: Configurar par&#225;metros</text><text fill="#000000" font-family="sans-serif" font-size="21.875" lengthAdjust="spacing" textLength="44.7327" x="526.7928" y="1288.8298">RAG</text></g><!--entity User--><g class="entity" data-qualified-name="User" data-source-line="12" id="ent0001"><ellipse cx="93.441" cy="740.4072" fill="#FEFECE" filter="url(#fngv85g7gmb39)" rx="12.5" ry="12.5" style="stroke:#A80036;stroke-width:3.125;"/><path d="M93.441,752.9072 L93.441,795.0947 M73.1285,765.4072 L113.7535,765.4072 M93.441,795.0947 L73.1285,818.5322 M93.441,795.0947 L113.7535,818.5322" fill="none" filter="url(#fngv85g7gmb39)" style="stroke:#A80036;stroke-width:3.125;"/><text fill="#000000" font-family="sans-serif" font-size="21.875" lengthAdjust="spacing" textLength="168.132" x="9.375" y="850.6184">Persona usuaria</text></g><g class="entity" data-qualified-name="GMN2" data-source-line="15" id="ent0003"><path d="M241.5625,43.1885 L241.5625,130.5817 L856.7427,130.5817 L856.7427,58.8135 L841.1177,43.1885 L241.5625,43.1885" fill="#FBFB77" filter="url(#fngv85g7gmb39)" style="stroke:#A80036;stroke-width:1.5625;"/><path d="M841.1177,43.1885 L841.1177,58.8135 L856.7427,58.8135 L841.1177,43.1885" fill="#FBFB77" style="stroke:#A80036;stroke-width:1.5625;"/><text fill="#000000" font-family="sans-serif" font-size="20.3125" lengthAdjust="spacing" textLength="582.3677" x="250.9375" y="70.639">Acceso primario: WebUI (React/Vite, ws://127.0.0.1:8765).</text><text fill="#000000" font-family="sans-serif" font-size="20.3125" lengthAdjust="spacing" textLength="484.108" x="250.9375" y="94.5618">Secundario: m&#243;vil RN, WhatsApp bridge (Baileys),</text><text fill="#000000" font-family="sans-serif" font-size="20.3125" lengthAdjust="spacing" textLength="289.9094" x="250.9375" y="118.4845">TUI (instalaci&#243;n/diagn&#243;stico).</text></g><!--link User to GMN2--><g class="link" data-entity-1="ent0001" data-entity-2="ent0003" data-link-type="association" data-source-line="15" id="lnk4"><path d="M102.7031,724.126 C120.3281,584.3135 167.8438,264.3604 241.5625,186.8916 C264.1094,163.2041 292.3281,145.126 322.4531,131.3135" fill="none" id="User-GMN2" style="stroke:#A80036;stroke-width:1.5625;stroke-dasharray:10.9375,10.9375;"/></g><!--link User to UC1--><g class="link" data-entity-1="ent0001" data-entity-2="ent0006" data-link-type="dependency" data-source-line="37" id="lnk17"><path d="M94.9531,724.0947 C98.6563,619.7041 121.9688,417.0791 241.5625,308.7666 C278.5156,275.3135 320.7228,259.3586 369.5197,250.9523" fill="none" id="User-to-UC1" style="stroke:#A80036;stroke-width:1.5625;"/><polygon fill="#A80036" points="377.2188,249.626,362.2993,245.8541,369.5197,250.9523,364.4214,258.1726,377.2188,249.626" style="stroke:#A80036;stroke-width:1.5625;stroke-linejoin:miter;stroke-miterlimit:10;"/></g><!--link User to UC2--><g class="link" data-entity-1="ent0001" data-entity-2="ent0007" data-link-type="dependency" data-source-line="38" id="lnk18"><path d="M103.1563,855.8916 C120.75,985.7979 166.7969,1267.3604 241.5625,1324.3916 C350.2656,1407.2979 735.2344,1387.0166 856.75,1324.3916 C1028.0938,1236.0947 1126.4569,1018.85 1163.7382,920.8343" fill="none" id="User-to-UC2" style="stroke:#A80036;stroke-width:1.5625;"/><polygon fill="#A80036" points="1166.5156,913.5322,1155.6745,924.4541,1163.7382,920.8343,1167.3579,928.898,1166.5156,913.5322" style="stroke:#A80036;stroke-width:1.5625;stroke-linejoin:miter;stroke-miterlimit:10;"/></g><!--link User to UC3--><g class="link" data-entity-1="ent0001" data-entity-2="ent0008" data-link-type="dependency" data-source-line="39" id="lnk19"><path d="M103.2344,724.501 C117.0313,643.4854 152.6719,507.2822 241.5625,433.7666 C279.0781,402.751 320.2123,387.2397 367.8061,378.3022" fill="none" id="User-to-UC3" style="stroke:#A80036;stroke-width:1.5625;"/><polygon fill="#A80036" points="375.4844,376.8604,360.5099,373.3131,367.8061,378.3022,362.817,385.5984,375.4844,376.8604" style="stroke:#A80036;stroke-width:1.5625;stroke-linejoin:miter;stroke-miterlimit:10;"/></g><!--link User to UC4--><g class="link" data-entity-1="ent0001" data-entity-2="ent0009" data-link-type="dependency" data-source-line="40" id="lnk20"><path d="M119.2813,724.2822 C142.4531,670.8916 182.6563,597.9541 241.5625,557.2041 C282.7031,528.7354 326.2524,514.0782 374.9556,505.172" fill="none" id="User-to-UC4" style="stroke:#A80036;stroke-width:1.5625;"/><polygon fill="#A80036" points="382.6406,503.7666,367.6832,500.1482,374.9556,505.172,369.9318,512.4443,382.6406,503.7666" style="stroke:#A80036;stroke-width:1.5625;stroke-linejoin:miter;stroke-miterlimit:10;"/></g><!--link User to UC5--><g class="link" data-entity-1="ent0001" data-entity-2="ent0010" data-link-type="dependency" data-source-line="41" id="lnk21"><path d="M100.5469,855.7197 C114.125,998.2197 154.5,1327.8916 241.5625,1390.0166 C675.6875,1699.6885 1364.5127,1336.6028 1589.5752,1202.0872" fill="none" id="User-to-UC5" style="stroke:#A80036;stroke-width:1.5625;"/><polygon fill="#A80036" points="1596.2813,1198.0791,1581.004,1199.9288,1589.5752,1202.0872,1587.4169,1210.6584,1596.2813,1198.0791" style="stroke:#A80036;stroke-width:1.5625;stroke-linejoin:miter;stroke-miterlimit:10;"/></g><!--link User to UC6--><g class="link" data-entity-1="ent0001" data-entity-2="ent0011" data-link-type="dependency" data-source-line="42" id="lnk22"><path d="M170.0938,724.1416 C191.9375,707.8135 216.6563,691.7979 241.5625,680.6416 C299.9688,654.4697 361.8251,640.3441 419.8719,631.4222" fill="none" id="User-to-UC6" style="stroke:#A80036;stroke-width:1.5625;"/><polygon fill="#A80036" points="427.5938,630.2354,412.745,626.1942,419.8719,631.4222,414.644,638.5491,427.5938,630.2354" style="stroke:#A80036;stroke-width:1.5625;stroke-linejoin:miter;stroke-miterlimit:10;"/></g><!--link User to UC7--><g class="link" data-entity-1="ent0001" data-entity-2="ent0012" data-link-type="dependency" data-source-line="43" id="lnk23"><path d="M178.0156,781.4229 C236.0781,775.4072 307.729,767.977 378.0884,760.6958" fill="none" id="User-to-UC7" style="stroke:#A80036;stroke-width:1.5625;"/><polygon fill="#A80036" points="385.8594,759.8916,371.2282,755.1224,378.0884,760.6958,372.5149,767.556,385.8594,759.8916" style="stroke:#A80036;stroke-width:1.5625;stroke-linejoin:miter;stroke-miterlimit:10;"/></g><!--link User to UC8--><g class="link" data-entity-1="ent0001" data-entity-2="ent0013" data-link-type="dependency" data-source-line="44" id="lnk24"><path d="M178.0156,804.0635 C243.8594,815.1885 329.4844,829.6823 405.8751,842.6042" fill="none" id="User-to-UC8" style="stroke:#A80036;stroke-width:1.5625;"/><polygon fill="#A80036" points="413.5781,843.9072,400.755,835.3993,405.8751,842.6042,398.6702,847.7243,413.5781,843.9072" style="stroke:#A80036;stroke-width:1.5625;stroke-linejoin:miter;stroke-miterlimit:10;"/></g><!--link User to UC9--><g class="link" data-entity-1="ent0001" data-entity-2="ent0014" data-link-type="dependency" data-source-line="45" id="lnk25"><path d="M149.6563,855.3291 C175,881.5947 207.125,909.7979 241.5625,927.5166 C286.9688,950.8604 332.7328,963.899 382.1547,972.7896" fill="none" id="User-to-UC9" style="stroke:#A80036;stroke-width:1.5625;"/><polygon fill="#A80036" points="389.8438,974.1729,377.11,965.5318,382.1547,972.7896,374.8968,977.8343,389.8438,974.1729" style="stroke:#A80036;stroke-width:1.5625;stroke-linejoin:miter;stroke-miterlimit:10;"/></g><!--link User to UC10--><g class="link" data-entity-1="ent0001" data-entity-2="ent0015" data-link-type="dependency" data-source-line="46" id="lnk26"><path d="M114.9688,855.8135 C136.5313,915.501 176.7969,1001.2822 241.5625,1049.3916 C285.8281,1082.2666 335.2586,1098.5235 388.1492,1107.8203" fill="none" id="User-to-UC10" style="stroke:#A80036;stroke-width:1.5625;"/><polygon fill="#A80036" points="395.8438,1109.1729,383.0756,1100.5827,388.1492,1107.8203,380.9116,1112.894,395.8438,1109.1729" style="stroke:#A80036;stroke-width:1.5625;stroke-linejoin:miter;stroke-miterlimit:10;"/></g><!--link User to UC11--><g class="link" data-entity-1="ent0001" data-entity-2="ent0016" data-link-type="dependency" data-source-line="47" id="lnk27"><path d="M100.3125,855.6104 C111.125,944.3135 143.75,1101.2666 241.5625,1186.8916 C279.9844,1220.5166 323.626,1237.2548 373.251,1246.8329" fill="none" id="User-to-UC11" style="stroke:#A80036;stroke-width:1.5625;"/><polygon fill="#A80036" points="380.9219,1248.3135,368.2987,1239.5117,373.251,1246.8329,365.9298,1251.7852,380.9219,1248.3135" style="stroke:#A80036;stroke-width:1.5625;stroke-linejoin:miter;stroke-miterlimit:10;"/></g><!--link UC2 to UC5--><g class="link" data-entity-1="ent0007" data-entity-2="ent0010" data-link-type="dependency" data-source-line="49" id="lnk28"><path d="M1258.4219,909.3916 C1348.4219,962.6729 1494.6838,1049.2705 1586.3557,1103.5517" fill="none" id="UC2-to-UC5" style="stroke:#A80036;stroke-width:1.5625;stroke-dasharray:10.9375,10.9375;"/><polygon fill="#A80036" points="1593.0781,1107.5322,1584.1622,1094.9894,1586.3557,1103.5517,1577.7934,1105.7452,1593.0781,1107.5322" style="stroke:#A80036;stroke-width:1.5625;stroke-linejoin:miter;stroke-miterlimit:10;"/><text fill="#000000" font-family="sans-serif" font-size="20.3125" lengthAdjust="spacing" textLength="92.7452" x="1390.4844" y="987.0609">&#171;include&#187;</text></g><!--link UC6 to UC2--><g class="link" data-entity-1="ent0011" data-entity-2="ent0007" data-link-type="dependency" data-source-line="50" id="lnk29"><path d="M667.2188,633.0479 C725.3906,642.6885 796.0938,657.8291 856.75,680.6416 C954.0781,717.251 1050.2672,776.0707 1113.8609,818.5082" fill="none" id="UC6-to-UC2" style="stroke:#A80036;stroke-width:1.5625;stroke-dasharray:10.9375,10.9375;"/><polygon fill="#A80036" points="1120.3594,822.8447,1112.1314,809.8402,1113.8609,818.5082,1105.193,820.2377,1120.3594,822.8447" style="stroke:#A80036;stroke-width:1.5625;stroke-linejoin:miter;stroke-miterlimit:10;"/><text fill="#000000" font-family="sans-serif" font-size="20.3125" lengthAdjust="spacing" textLength="89.3631" x="889.5625" y="690.5922">&#171;extend&#187;</text></g><!--link UC7 to UC2--><g class="link" data-entity-1="ent0012" data-entity-2="ent0007" data-link-type="dependency" data-source-line="51" id="lnk30"><path d="M684.8125,769.3135 C790.1094,789.876 928.6291,816.9261 1035.4103,837.7698" fill="none" id="UC7-to-UC2" style="stroke:#A80036;stroke-width:1.5625;stroke-dasharray:10.9375,10.9375;"/><polygon fill="#A80036" points="1043.0781,839.2666,1030.4735,830.4382,1035.4103,837.7698,1028.0787,842.7067,1043.0781,839.2666" style="stroke:#A80036;stroke-width:1.5625;stroke-linejoin:miter;stroke-miterlimit:10;"/><text fill="#000000" font-family="sans-serif" font-size="20.3125" lengthAdjust="spacing" textLength="89.3631" x="889.5625" y="806.889">&#171;extend&#187;</text></g><!--link UC8 to UC2--><g class="link" data-entity-1="ent0013" data-entity-2="ent0007" data-link-type="dependency" data-source-line="52" id="lnk31"><path d="M717.25,866.5791 C807.8125,866.5791 911.8438,866.5791 1003.2187,866.5791" fill="none" id="UC8-to-UC2" style="stroke:#A80036;stroke-width:1.5625;stroke-dasharray:10.9375,10.9375;"/><polygon fill="#A80036" points="1011.0312,866.5791,996.9687,860.3291,1003.2187,866.5791,996.9687,872.8291,1011.0312,866.5791" style="stroke:#A80036;stroke-width:1.5625;stroke-linejoin:miter;stroke-miterlimit:10;"/><text fill="#000000" font-family="sans-serif" font-size="20.3125" lengthAdjust="spacing" textLength="89.3631" x="889.5625" y="861.2172">&#171;extend&#187;</text></g><?plantuml-src VLJRJjj047ttLupI5v0WYNF7GaY9qoAaK24AvIKlczs9sSRUjNRNG5JnCVq6FY4_rbd785jjS5uyCtlEd3axZjr81KPR32ozvSom34Gk8HnsQncb1LhCeLzF6gOsFZce9n-P4iz6EeSArYnjy1OMERC8lmEWPyRu9Z6wK2BMgJRdvxcH6JFRYmluif39evkb1UvFQYFG_7jgpiocFFGQfBXsu3GO3mGX3N8djGe2nfqsqBf1OxLY9A5WHh8MC0lt5aqGAEsmWkdrFWSmvHojXdqlgIDumDNz5HpT8l5rVag79_1iequdx8tRNVg5qMGy6Xwt2Vi3ESsqXsMxjoUPmktt4tXuPCvEynnMHee4uMZ6P8fRUtn2c3jFBfLrB6LSxjvKHqYMgDsRTP9heaKbm2iD0ZyPKqcAq5fepj9hgSJfzAf5hXBHkyMj-3wCu4f9Bfa1hjKJ6R2dtiyUXr3piediHV1LFNbWXigoNmXReBPo9SrI6RHvWQGKOdrNSVKES_KZY5csAibeYL8DYyLr1UiVXWsyU84l11EQ5wJ3wGerE8mQHZ0hB2SGRT_A9mKk5KslkSoavw0hd5uULqp31bEJQXJ19Ieqn7Kp_rO1HeTRZoEuCUZtt83CSdB9UmtzUGKT7uPEFknc5LIRQaFZoISIpoAOe_CY8Icbrg_tx72_iElDBNVDqCsIFMkP52HygQoq3hFtvc7t4n9Qh_W32JJuxa-6Zlv9beeiVcTeRjbh4FWF34vFBton7lJgGRyU3Eh1i1wCwi6u7apgmLcZQRSHXQI8rhVTBiaX8hbIyRGGI7BzXUyhlRA2B-IsA0lZGuN9_mj_0G00?></g></svg>